:SAMPLES-PER-SECOND 30
:FULLY-SPECIFIED
:DEGREES
344
root  -6.60458 34.7327 -28.2671 -171.401 59.8557 -179.903
RightUpLeg  -4.55603 -14.4471 0.0739911
RightLeg  3.64534 -4.11738 0.00402547
RightFoot  3.92733 0.0228114 -0.117302
RightToes  -22.3964 -0.0929875 -0.192835
Spine  -2.61031 0.90402 -0.483953
Spine1  -5.33557 1.97783 -0.430503
HEad  -64.1357 -23.0378 0.7249
LeftShoulder1  -1.94126e-019 -3.10601e-018 -2.51263e-017
LeftArm  -3.55849 21.4533 -81.4352
LeftForeArm  31.2955 -30.9792 -4.999
LeftHand  -0.61133 -3.76435 8.01275
RightShoulder  -4.96962e-017 0 -2.36833e-017
RightArm  -37.644 -12.9585 76.4435
RightForeArm  84.6699 1.86525 0.23174
RightHand  0.295236 -7.33548 -18.4532
LeftUpLeg  -5.55606 8.39139 1.18889
LeftLeg  8.2634 21.8286 1.70562
LeftFoot  2.71741 -0.0252423 1.22581
LeftToes  -13.1088 2.25955e-006 -3.67304e-008
345
root  -6.56734 34.6137 -28.249 -171.539 59.4861 179.898
RightUpLeg  -5.69282 -14.8077 0.0382141
RightLeg  6.10635 -4.09994 -0.171785
RightFoot  2.50292 0.0130842 -0.0536321
RightToes  -22.1547 -0.0926697 -0.192401
Spine  -2.63303 0.494071 -0.0764675
Spine1  -5.34358 0.944208 0.351686
HEad  -63.6028 -21.7333 2.134
LeftShoulder1  -1.94126e-019 -3.10601e-018 -2.51263e-017
LeftArm  -9.21838 20.0322 -82.1631
LeftForeArm  35.0255 -19.5871 -3.27313
LeftHand  -0.578964 -3.37071 7.91952
RightShoulder  -4.96962e-017 0 -2.36833e-017
RightArm  -33.274 -20.6264 73.9807
RightForeArm  92.7139 1.44126 0.125244
RightHand  -0.469187 0.007063 -10.1381
LeftUpLeg  -6.70187 8.1354 1.17544
LeftLeg  10.6919 21.6425 2.59521
LeftFoot  1.61194 -0.00806602 0.734958
LeftToes  -13.0754 2.25955e-006 -3.67304e-008
346
root  -6.55866 34.518 -28.2219 -171.505 59.216 179.745
RightUpLeg  -6.78294 -14.9435 0.0649976
RightLeg  8.0551 -4.221 -0.320784
RightFoot  1.46569 0.00907336 -0.0261846
RightToes  -22.3233 -0.0923892 -0.192016
Spine  -2.62997 -0.318471 0.319474
Spine1  -5.27428 -1.03305 1.23454
HEad  -63.8291 -19.4459 4.30716
LeftShoulder1  -1.94126e-019 -3.10601e-018 -2.51263e-017
LeftArm  -15.9798 19.7597 -82.033
LeftForeArm  39.5108 -9.74574 -1.69985
LeftHand  -0.580132 -2.58525 8.6615
RightShoulder  -4.96962e-017 0 -2.36833e-017
RightArm  -22.8097 -27.9699 71.9652
RightForeArm  87.7798 4.60751 0.691362
RightHand  -0.78372 5.78649 -8.44121
LeftUpLeg  -7.70456 8.01129 1.14026
LeftLeg  12.4286 21.435 3.2165
LeftFoot  0.805356 -0.00146491 0.370027
LeftToes  -13.1189 2.25955e-006 -3.67304e-008
347
root  -6.55355 34.4263 -28.1777 -171.628 59.4529 179.526
RightUpLeg  -7.75785 -14.64 0.0431585
RightLeg  9.81308 -4.29803 -0.459602
RightFoot  0.474537 0.00503992 0.018095
RightToes  -22.3017 -0.0921501 -0.191686
Spine  -2.61741 -1.32608 0.592049
Spine1  -5.20395 -3.36125 1.94449
HEad  -63.7038 -15.9019 5.84261
LeftShoulder1  -1.94126e-019 -3.10601e-018 -2.51263e-017
LeftArm  -18.515 21.9747 -80.9398
LeftForeArm  38.5658 -5.59667 -0.960048
LeftHand  -0.566719 -1.27058 10.0317
RightShoulder  -4.96962e-017 0 -2.36833e-017
RightArm  -17.0845 -34.3507 69.4049
RightForeArm  70.6627 8.24568 1.36828
RightHand  -0.697762 3.63762 -9.21151
LeftUpLeg  -8.48208 8.52467 1.08143
LeftLeg  13.974 21.0797 3.73492
LeftFoot  0.122642 9.24204e-005 0.0752683
LeftToes  -13.3207 2.25955e-006 -3.67304e-008
348
root  -6.54524 34.3656 -28.1019 -171.794 60.4258 179.408
RightUpLeg  -8.41342 -13.9002 0.0511242
RightLeg  10.9675 -4.0776 -0.519387
RightFoot  -0.289851 0.00162589 0.0660311
RightToes  -21.9233 -0.0919565 -0.191421
Spine  -2.65147 -2.08673 0.845275
Spine1  -5.23059 -5.02147 2.57925
HEad  -62.2243 -12.5169 6.66701
LeftShoulder1  -1.94126e-019 -3.10601e-018 -2.51263e-017
LeftArm  -19.497 26.0588 -80.1287
LeftForeArm  36.3634 -5.42157 -0.931293
LeftHand  -0.553122 -0.52297 10.9691
RightShoulder  -4.96962e-017 0 -2.36833e-017
RightArm  -23.0309 -37.3404 67.4875
RightForeArm  62.5069 7.91317 1.33242
RightHand  -0.51992 0.314587 -10.6502
LeftUpLeg  -8.77821 9.35458 1.08583
LeftLeg  14.9717 21.112 4.1109
LeftFoot  -0.287213 -0.000625432 -0.0879684
LeftToes  -13.5113 2.25955e-006 -3.67304e-008
349
root  -6.55544 34.3187 -27.9755 -171.632 62.2666 179.661
RightUpLeg  -9.20204 -12.4333 0.261755
RightLeg  12.0201 -3.71113 -0.542302
RightFoot  -0.783405 0.000460501 0.0903434
RightToes  -21.949 -0.0918128 -0.191226
Spine  -2.55601 -2.42846 1.09547
Spine1  -4.99838 -5.75065 3.14372
HEad  -59.945 -10.4505 7.46425
LeftShoulder1  -1.94126e-019 -3.10601e-018 -2.51263e-017
LeftArm  -19.1608 29.7965 -79.726
LeftForeArm  34.0796 -6.18209 -1.06701
LeftHand  -0.554653 -0.511795 11.0191
RightShoulder  -4.96962e-017 0 -2.36833e-017
RightArm  -31.5611 -38.0229 66.08
RightForeArm  64.5422 6.4202 1.07193
RightHand  -0.416447 -1.67554 -12.8752
LeftUpLeg  -8.97733 10.5652 1.25772
LeftLeg  15.9277 21.5951 4.5651
LeftFoot  -0.607113 -0.00202138 -0.219953
LeftToes  -14.1135 2.25955e-006 -3.67304e-008
350
root  -6.58994 34.2823 -27.8127 -171.121 64.5445 -179.752
RightUpLeg  -10.1664 -10.6195 0.620408
RightLeg  13.1374 -3.24492 -0.539215
RightFoot  -1.23466 0.000218238 0.105974
RightToes  -21.7718 -0.091723 -0.191109
Spine  -2.47348 -2.40474 1.31186
Spine1  -4.79723 -5.69339 3.57771
HEad  -56.7224 -9.63657 8.09849
LeftShoulder1  -1.94126e-019 -3.10601e-018 -2.51263e-017
LeftArm  -18.8301 32.9297 -79.6579
LeftForeArm  33.1146 -7.10724 -1.23123
LeftHand  -0.558938 -0.780983 10.6407
RightShoulder  -4.96962e-017 0 -2.36833e-017
RightArm  -40.0295 -37.5076 65.0921
RightForeArm  70.756 4.48092 0.718234
RightHand  -0.335472 -2.84271 -14.923
LeftUpLeg  -9.32598 11.5878 1.51446
LeftLeg  17.1992 22.6938 5.29663
LeftFoot  -1.06198 -0.00548355 -0.430088
LeftToes  -14.2246 2.25955e-006 -3.67304e-008
351
root  -6.63341 34.2668 -27.6468 -170.519 66.8889 -178.956
RightUpLeg  -10.99 -8.90867 0.981924
RightLeg  14.1822 -2.56518 -0.474751
RightFoot  -1.53993 0.000901312 0.108891
RightToes  -21.8671 -0.0916914 -0.191078
Spine  -2.25905 -2.20017 1.50049
Spine1  -4.34812 -5.18325 3.9153
HEad  -53.644 -9.06644 7.956
LeftShoulder1  -1.94126e-019 -3.10601e-018 -2.51263e-017
LeftArm  -19.0298 35.1042 -79.9514
LeftForeArm  32.767 -7.89718 -1.37198
LeftHand  -0.55418 -1.01548 10.1836
RightShoulder  -4.96962e-017 0 -2.36833e-017
RightArm  -43.9803 -36.5646 64.7669
RightForeArm  71.7131 3.78578 0.595994
RightHand  -0.24077 -3.62344 -15.1496
LeftUpLeg  -9.53972 12.463 1.82063
LeftLeg  18.475 23.9785 6.12324
LeftFoot  -1.43221 -0.00983167 -0.624991
LeftToes  -14.1674 2.25955e-006 -3.67304e-008
352
root  -6.69032 34.2616 -27.4757 -169.328 69.0912 -177.884
RightUpLeg  -11.9986 -6.36887 1.4479
RightLeg  15.0215 -2.85084 -0.571116
RightFoot  -1.83367 -0.00163608 0.154333
RightToes  -21.8006 -0.0917222 -0.19114
Spine  -2.03556 -1.86358 1.73199
Spine1  -3.89652 -4.32777 4.30627
HEad  -51.4731 -8.56786 7.12197
LeftShoulder1  -1.94126e-019 -3.10601e-018 -2.51263e-017
LeftArm  -19.0892 36.4564 -80.6454
LeftForeArm  32.2424 -8.57877 -1.4946
LeftHand  -0.534556 -1.09676 9.71144
RightShoulder  -4.96962e-017 0 -2.36833e-017
RightArm  -43.2691 -35.5847 65.3194
RightForeArm  66.9535 4.86749 0.796151
RightHand  -0.292836 -3.05528 -14.116
LeftUpLeg  -9.94993 13.9505 2.14319
LeftLeg  19.3558 24.5784 6.65441
LeftFoot  -1.67783 -0.0132678 -0.744485
LeftToes  -14.4504 2.25955e-006 -3.67304e-008
353
root  -6.76863 34.2744 -27.3184 -168.36 71.2679 -177.277
RightUpLeg  -13.1587 -3.81268 1.64269
RightLeg  15.8143 -3.15101 -0.676875
RightFoot  -2.44219 -0.00664361 0.227578
RightToes  -21.8793 -0.092181 -0.191758
Spine  -1.80621 -1.4853 1.81376
Spine1  -3.43347 -3.36456 4.37564
HEad  -50.1255 -7.96111 6.25192
LeftShoulder1  -1.94126e-019 -3.10601e-018 -2.51263e-017
LeftArm  -18.9444 36.9617 -81.2529
LeftForeArm  31.3907 -8.95544 -1.56179
LeftHand  -0.544911 -1.07464 9.92877
RightShoulder  -4.96962e-017 0 -2.36833e-017
RightArm  -37.5064 -34.8591 66.6301
RightForeArm  59.4425 8.18814 1.37878
RightHand  -0.407262 -1.57136 -12.2543
LeftUpLeg  -10.3193 15.4623 2.15022
LeftLeg  19.6542 25.1541 6.934
LeftFoot  -1.72838 -0.0140434 -0.7694
LeftToes  -14.2753 2.25955e-006 -3.67304e-008
354
root  -6.82072 34.3197 -27.1737 -167.341 73.0141 -176.68
RightUpLeg  -13.945 -2.68951 1.77339
RightLeg  15.9712 -2.60065 -0.566338
RightFoot  -3.002 -0.00937589 0.256822
RightToes  -24.4278 -0.107492 -0.211435
Spine  -1.59022 -1.16707 1.84764
Spine1  -3.00887 -2.48616 4.35185
HEad  -49.1645 -7.00964 5.21961
LeftShoulder1  -1.94126e-019 -3.10601e-018 -2.51263e-017
LeftArm  -19.1577 36.7605 -81.8973
LeftForeArm  30.4679 -9.03963 -1.5774
LeftHand  -0.542091 -1.09507 9.84867
RightShoulder  -4.96962e-017 0 -2.36833e-017
RightArm  -29.2905 -33.9192 67.8916
RightForeArm  51.9241 12.6139 1.46129
RightHand  -0.453755 -0.1976 -10.173
LeftUpLeg  -10.632 16.7056 2.15436
LeftLeg  19.6222 25.6347 7.04169
LeftFoot  -1.5029 -0.0106076 -0.647153
LeftToes  -14.6432 2.25955e-006 -3.67304e-008
355
root  -6.84443 34.3937 -27.0421 -166.213 74.4342 -175.843
RightUpLeg  -14.0505 -2.53889 1.95371
RightLeg  15.189 -1.53856 -0.313106
RightFoot  -3.39205 -0.00963255 0.235207
RightToes  -27.604 -0.127775 -0.234973
Spine  -1.31618 -0.964971 1.87372
Spine1  -2.48434 -1.8537 4.34442
HEad  -48.8685 -5.72373 4.47214
LeftShoulder1  -1.94126e-019 -3.10601e-018 -2.51263e-017
LeftArm  -19.5912 35.9184 -82.625
LeftForeArm  29.0999 -9.1119 -1.59119
LeftHand  -0.534793 -0.989229 9.87079
RightShoulder  -4.96962e-017 0 -2.36833e-017
RightArm  -23.3794 -32.2341 68.7185
RightForeArm  46.4547 17.4202 1.47297
RightHand  -0.467856 0.682029 -9.04314
LeftUpLeg  -10.7297 17.731 2.27482
LeftLeg  19.4219 26.0021 7.04127
LeftFoot  -1.13309 -0.00593845 -0.43896
LeftToes  -15.3335 2.25955e-006 -3.67304e-008
